<svg xmlns="http://www.w3.org/2000/svg" xmlns:xlink="http://www.w3.org/1999/xlink" width="500" height="726" viewBox="0 0 500 726">
  <defs>
    <clipPath id="clip-custom_1">
      <rect width="500" height="726"/>
    </clipPath>
  </defs>
  <g id="custom_1" data-name="custom – 1" clip-path="url(#clip-custom_1)">
    <rect width="500" height="726" fill="rgba(255,255,255,0)"/>
    <g id="Path_1" data-name="Path 1" transform="translate(-311 -239.051)" fill="rgba(170,170,170,0.5)" stroke-linejoin="round">
      <path d="M311,946.684c.173,3,2.719,10.251,9.849,14.992s18.655,4.261,22.358,1.738c7.1-4.837,442.327-321.774,448.861-333.172.242-.289,14.87-12.609,14.575-27.806.115-8.13-3.662-17.879-14.575-28.682S348.659,243.79,348.493,243.625c0,0-14.691-10.014-28.536.4-8.936,5.993-8.609,17.666-9.23,23.383,0,0,0,64.013,0,64.013s-.315,18.713,18.271,34.985S616.251,581.818,616.3,581.906s11.489,7.27,11.783,16.9c1.669,11.2-9.418,19.481-11.783,22.008-1.826,1.66-282.733,211.708-282.733,211.708S311,851.58,311,875.084Z" stroke="none"/>
      <path d="M 334.4245910644531 953.2904052734375 L 334.4243774414063 953.2904052734375 C 335.6990966796875 953.2904052734375 336.6133728027344 953.1547241210938 337.0964965820313 953.0493774414063 C 369.404541015625 930.52099609375 763.5131225585938 642.0723876953125 782.5283203125 622.9629516601563 C 782.634033203125 622.8244018554688 782.7428588867188 622.6880493164063 782.8546142578125 622.5541381835938 C 783.2021484375 622.1376953125 783.7847290039063 621.5516967773438 784.1853637695313 621.18603515625 C 789.32470703125 616.4950561523438 794.7713623046875 609.167236328125 794.6445922851563 602.266845703125 C 794.7276000976563 596.41162109375 790.91748046875 589.50146484375 783.7582397460938 582.4105834960938 C 778.7886962890625 577.8768310546875 716.6643676757813 530.5355834960938 356.4344787597656 264.4154968261719 C 347.5769653320313 257.8720092773438 343.6929321289063 255.002685546875 341.873779296875 253.6284942626953 L 341.87158203125 253.6318206787109 C 341.8349304199219 253.6083831787109 338.1585998535156 251.2903747558594 333.8414916992188 251.2903747558594 C 331.3987121582031 251.2903747558594 329.2789306640625 252.0290374755859 326.6411437988281 253.9912719726563 C 323.8935852050781 255.8341522216797 323.3223571777344 260.4728088378906 322.902587890625 265.8954772949219 L 322.7132568359375 268.0580139160156 C 322.7269897460938 271.6936645507813 322.7268371582031 284.4400939941406 322.7262573242188 331.4451599121094 C 322.7342529296875 332.0042724609375 323.0812683105469 345.2770385742188 336.9027099609375 357.3777160644531 C 342.8572692871094 362.5909423828125 386.5514831542969 396.3624877929688 612.2833862304688 563.9677124023438 C 618.1127319335938 568.2960815429688 621.33984375 570.6921997070313 623.2350463867188 572.1983032226563 L 623.2760620117188 572.1398315429688 C 628.1026000976563 575.4644165039063 639.2571411132813 584.5321044921875 640.0492553710938 597.7117309570313 C 641.9891357421875 613.2564086914063 630.3276977539063 624.1091918945313 625.8983764648438 628.2315063476563 L 624.3792724609375 629.6892700195313 C 623.8221435546875 630.1959228515625 622.1270141601563 631.73779296875 341.3434753417969 841.6631469726563 C 336.2413635253906 846.0301513671875 323.0000305175781 860.5471801757813 323.0000305175781 875.0839233398438 L 323.0000305175781 945.8291625976563 C 323.2413940429688 946.6435546875 324.2979125976563 949.5584716796875 327.4946899414063 951.6845092773438 C 328.9613647460938 952.659912109375 331.6815795898438 953.290283203125 334.4245910644531 953.2904052734375 M 334.4234619140625 965.2904052734375 C 329.9099426269531 965.2902221679688 324.7286987304688 964.2564697265625 320.849365234375 961.676513671875 C 313.7191467285156 956.9345703125 311.1730346679688 949.68505859375 311.0000305175781 946.6840209960938 C 311.0000305175781 940.3639526367188 311.0000305175781 875.0839233398438 311.0000305175781 875.0839233398438 C 311.0000305175781 851.5800170898438 333.5715942382813 832.52001953125 333.5715942382813 832.52001953125 C 333.5715942382813 832.52001953125 614.4790649414063 622.4728393554688 616.3045654296875 620.812255859375 C 618.6694946289063 618.2854614257813 629.7568969726563 610.0048217773438 628.0878295898438 598.8043823242188 C 627.7931518554688 589.1759033203125 616.3577880859375 581.9933471679688 616.3045654296875 581.9055786132813 C 616.2513427734375 581.8178100585938 347.5837097167969 382.6782531738281 328.998046875 366.4063720703125 C 310.4123840332031 350.1346130371094 310.726806640625 331.4214782714844 310.726806640625 331.4214782714844 C 310.726806640625 331.4214782714844 310.72705078125 267.411376953125 310.726806640625 267.4084777832031 C 311.3482666015625 261.6913757324219 311.0213623046875 250.0183715820313 319.9569396972656 244.0252685546875 C 324.6942138671875 240.4618225097656 329.5284423828125 239.2904205322266 333.8414306640625 239.2904205322266 C 342.1334838867188 239.2904205322266 348.4931640625 243.6246032714844 348.4931640625 243.6246032714844 C 348.658935546875 243.7904815673828 781.15478515625 562.9521484375 792.0680541992188 573.7552490234375 C 802.9812622070313 584.558349609375 806.7587280273438 594.3068237304688 806.6433715820313 602.4370727539063 C 806.9376220703125 617.6338500976563 792.3095092773438 629.9532470703125 792.0680541992188 630.2426147460938 C 785.5338134765625 641.6405029296875 350.307373046875 958.578125 343.2071533203125 963.414794921875 C 341.51904296875 964.5647583007813 338.2058410644531 965.29052734375 334.4234619140625 965.2904052734375 Z" stroke="none" fill="rgba(0,0,0,0.7)"/>
    </g>
    <g id="Path_2" data-name="Path 2" transform="translate(-311.673 -192.72)" fill="rgba(170,170,170,0.5)">
      <path d="M350.192,669.777c1.436-1.09,9.185-6.864,20.456-15.275,32.205-24.03,92.981-69.449,100.794-76.326,10.444-9.193,9.946-19.509,9.946-22.648s-.06-12.4-9.946-20.406-114.089-88.028-121.809-92.61-15.473-4.243-24.809,0S311.657,456.5,311.673,462.22s0,183.375,0,189.719,3.259,13.034,12.7,17.838S344.492,674.1,350.192,669.777Z" stroke="none"/>
      <path d="M 338.3336486816406 661.2029418945313 L 338.3334350585938 661.2029418945313 C 340.9486694335938 661.2028198242188 342.4874877929688 660.5593872070313 342.9355773925781 660.2191772460938 C 344.0086669921875 659.4044799804688 348.5825805664063 655.9920043945313 355.5090026855469 650.8250732421875 L 363.471923828125 644.88427734375 C 424.5637817382813 599.2999267578125 458.22265625 573.825439453125 463.5135803222656 569.1685180664063 C 469.4360046386719 563.9556884765625 469.4058227539063 558.786865234375 469.3877868652344 555.5284423828125 C 469.3877868652344 553.3779296875 469.3877868652344 548.9029541015625 463.8878173828125 544.44677734375 C 451.4749145507813 534.3898315429688 351.0396728515625 457.478759765625 343.5090026855469 452.8330078125 C 341.6092529296875 451.7056579589844 339.9312133789063 451.2029113769531 338.0680847167969 451.2029113769531 C 335.8064575195313 451.2029113769531 333.0983581542969 451.9339904785156 329.7891540527344 453.4379272460938 C 325.125 455.5577087402344 323.6689147949219 460.872802734375 323.6724853515625 462.1876220703125 C 323.6858825683594 467.0784606933594 323.6764221191406 597.7030639648438 323.6733703613281 639.4310302734375 L 323.6725463867188 651.939208984375 C 323.6725463867188 652.9326171875 323.6725463867188 655.955810546875 329.8167419433594 659.0804443359375 C 332.5079040527344 660.4490356445313 335.5326232910156 661.2028198242188 338.3336486816406 661.2029418945313 M 338.3319702148438 673.2029418945313 C 333.8672180175781 673.2027587890625 328.9763488769531 672.1156616210938 324.3771667480469 669.7767333984375 C 314.9320068359375 664.973388671875 311.6725463867188 658.282958984375 311.6725463867188 651.939208984375 C 311.6725463867188 645.595458984375 311.6881713867188 467.9391784667969 311.6725463867188 462.2204284667969 C 311.6569213867188 456.5016784667969 315.4883117675781 446.7561645507813 324.8241577148438 442.5132446289063 C 329.5815124511719 440.3511657714844 333.927734375 439.2029113769531 338.0680847167969 439.2029113769531 C 342.052734375 439.2029113769531 345.8467102050781 440.2664184570313 349.6329650878906 442.5132446289063 C 357.3534240722656 447.0948486328125 461.556396484375 527.1136474609375 471.4419860839844 535.1229248046875 C 481.3274841308594 543.13232421875 481.3877868652344 552.3890991210938 481.3877868652344 555.5284423828125 C 481.3877868652344 558.6676635742188 481.88623046875 568.9834594726563 471.4419860839844 578.17626953125 C 463.6296081542969 585.0525512695313 402.8534240722656 630.4717407226563 370.6482543945313 654.5020141601563 C 359.376953125 662.9124145507813 351.6280212402344 668.6863403320313 350.1917724609375 669.7767333984375 C 347.2676391601563 671.9967651367188 343.0362548828125 673.203125 338.3319702148438 673.2029418945313 Z" stroke="none" fill="rgba(0,0,0,0.7)"/>
    </g>
  </g>
</svg>
