<svg xmlns="http://www.w3.org/2000/svg" xmlns:xlink="http://www.w3.org/1999/xlink" viewBox="0 0 750 749.95"><defs><style>.cls-1,.cls-2,.cls-3{stroke:#000;}.cls-1,.cls-2{stroke-width:6px;}.cls-1{fill:url(#Безымянный_градиент);}.cls-2,.cls-3{fill:none;}.cls-3{stroke-width:4px;}</style><radialGradient id="Безымянный_градиент" cx="380.88" cy="378.62" r="372.11" gradientTransform="matrix(0.99, 0, 0, -1.01, -0.27, 755.56)" gradientUnits="userSpaceOnUse"><stop offset="0" stop-color="#353a37"/><stop offset="0" stop-color="#343836" stop-opacity="0.9"/><stop offset="0" stop-color="#333434" stop-opacity="0.75"/><stop offset="0" stop-color="#333" stop-opacity="0.7"/></radialGradient></defs><title>Ресурс 1</title><g id="Слой_2" data-name="Слой 2"><g id="Слой_1-2" data-name="Слой 1"><g id="Слой_2-2" data-name="Слой 2"><g id="Слой_1-2-2" data-name="Слой 1-2"><g id="Group_2" data-name="Group 2"><path class="cls-1" d="M747,387.73c-.29-1.1-9.56-3-12.75-4s-28.88-10.15-30.62-12.44-3.09-6.37-1.35-8.06,3.67-4.48,10.14-6.57,31.68-10.15,32.74-12.24-3.18-27.86-3.28-29.65-28.59-4.87-32.26-5.57-13.43-2.29-14.3-5.28,1.36-8.56,4-9.65,34.39-16.42,34.68-18.91-9.08-30.15-9.37-31.34-21.63.69-30.81-.6-15.84-.6-16.42-4.28-2.41-5.67,8.31-13.33,21.34-16.52,21.92-19-2.7-7.36-6-12.44-7.34-12-8.69-14-19.41,3.29-22.79,3.69-19.42,6.17-22.32,4.47-5.79-3.28-4.34-5.67,7.24-13.93,13.62-19.5,11.59-13.14,11.3-16.32-5.41-7.66-9.56-12.84-8.89-9.15-9.66-10.35-24.26,7.54-31,9.38-11,5.05-13.67,2-2.37-7.43,2.53-13.78S620.7,99.1,619.81,96.27,601.38,81.08,600,80.43s-5.62-4.48-8.23-2.34-12.18,9.11-17.46,11.79-11.59,8.58-15.9,8.8-8.63-1.12-8.82-3.51,14.68-39.5,12.17-42.69-11.09-6.8-13.89-8.29-11.13-9.72-17.11-1.06-25.39,23.94-27,24.4-6.53,2.76-8-1.83,6.57-39.21,1.94-42-26.39-7.8-26.39-7.8-20.86,26.89-24.53,28.31-9,3.13-10.82-3-.67-29.46-2.41-34-29.08-1.89-29.17-1.7-6.18,21.1-8.88,23.48-8.21,7.46-10.63,2.09-2-26-3.49-27.1S353,2.92,352,3.08s-5.8,24.18-7.51,27.4-2.17,11.79-7.88,11.2-11.66-9.89-15-16.43-8.82-13.67-9.21-13.77S286,16.85,284.79,17.75s-1.45,35.42-2.32,37.51-1.55,6.77-8,5.58S247.87,30.17,246,30.4s-25.46,9.76-25.83,11.28,6.81,36,6.06,38.4-3,9.34-8.54,8.49S186.23,63,184,63.57s-24.63,14.9-24.73,16.56,13.33,34.79,10.15,39.36-13.72,1.89-21.83-3-19.9-12.64-23.09-9.45-19.76,17-18.75,19.62S126,159.74,125.88,162.2s-3.65,9.32-9.3,7.63-35-12.93-37.41-11.12S62.56,179.89,63,182s26,30.16,25.71,31.34-.91,6-3.94,6.54-43-2.24-44.58.64S28.11,246.1,29.66,248.09s34.12,23.22,33.74,27.6-1.36,7.86-15,7.86-31.58,1.1-31.58,3.09-9.18,28.06-5.61,29.45S51.12,334.4,51,336.89s.86,7-1.55,8S4.9,356.13,4.8,357.89s-4,28.16,0,30.45,42,7.76,43.56,11.74,1.07,7.66-5.21,10.55S7.18,427,7.47,428.23s3.28,28,4.34,29,47.91,1.69,49.36,5.37,4.15,7-3.09,13S24,501.37,24.37,502.76s9.46,25.87,10.82,25.58S86.57,517.69,87,524.85s1.64,5.38-2.8,11S56.46,565.1,57.52,567.79s14.78,26.37,16.61,26.67,49.12-16.92,52.26-13.17,2.89,9.7-1.13,13.71-23.76,29.55-23.38,31,19.34,23.41,23.36,22.51S166.05,622,169.56,627s3.27,9.83,1,15.65S156.13,676,160,678.37s22.25,20.47,28.78,15.09,37.54-41.37,40-30.27-7,49.78-1.15,53.31,24.42,14.62,28.67,9.59,30.15-51.73,35.17-36.08,1.76,50.71,9,52,28.13,5,29.64.52,18.14-46.56,24.32-46,7.92-1.75,14.93,25.57,7.42,24.92,9.55,24.71,26.94.43,28.64-1.32,10.19-48.75,11.46-49,5.94-5.91,10,0,21.85,39.13,23.13,40,25.25-4.59,27.58-6.77,2.76-4.38,2.12-7.66,0-22.95,1.06-28.85,1.49-16.62,3.61-17.71,7-3.28,10.19,1.53,24.82,31.48,27.37,32.35,14-2.13,16.24-3.81,10.42-5.56,11.3-7.89-2.76-18.88-3-24.7-2.39-14.75-1.51-19.41,1.38-9.44,4.52-8.92,10.55,2.84,23.48,15.91,15.32,12,17.33,11.64,11.68-7.76,13.81-9.19,10.17-8.79,9.67-11.64-17-24.32-18-29.75-4.27-13.06-2.14-15.65,8-4.4,12.31-1.55S644,622,647.07,621.7s10.24-10.28,12-12.87,8.79-9.85,8.59-13.33-7.24-9.65-9.95-13.43-12.94-19.9-13.91-23.29-1.83-11.44,3.87-10.64,43.56,12.33,46.07,12.53,9-12.24,9.85-13.93,8.2-12.74,6-15.11S686,511.65,684,508.82s-9.59-10.26-9.44-13.63,1.49-5.43,4.53-6.2,44.73,2.76,46.22,2.22,4-7.16,5-11,5.4-15.32,4.92-17.61-.1-4.18-2.22-5.28S710,444.79,706.72,442s-10.53-8.16-10.92-11.25,3.29-6.66,6.38-7.06,34.77-2.89,36.61-3.58,6.37-1,6.47-4.78S747.24,388.82,747,387.73ZM238.86,174.54c14-14.84,47.72-27,65.68-34.12s27.51-1.93,37.8,1.74,17.4,22.36,17.4,22.36v71.9c0,5-2.53,9.42-3.09,10.58a11.51,11.51,0,0,1-4.66.57c-3-.12-6.85,2.16-11.05-4.92s-6.64-2-9.41-1.5-3.14,2.49-.65,8.33-1.62,6.54-1.62,6.54a10.45,10.45,0,0,1-10.28-2.9c-4.48-4.73-6.35-2.37-9.63-.48s-4.6,4.2-4.22,8.72,1.59,9.68-.62,12.83a14.51,14.51,0,0,1-5.17,4.52c-1.22.34-4.14-.57-6.2-.57s.73.89-40.81-25.72-39.67-33.15-40.42-41.06S224.82,189.39,238.86,174.54Zm75.73,150.65c21.29,13.25,27.68,18.34,27.68,18.34v23l-35.18,17.55c-16,8-14.06-29.66-14.06-29.66S293.3,312,314.59,325.19ZM161.46,427.81c-13.82-1.78-15.83-18.24-20.3-30.84s-5.18-49.53,1.73-77.86,13.82-30.69,27.78-39.29,27.78-.45,32,1.33,46.49,26.84,58,32.62,9.5,10.24,9.5,10.24.32,7.87-4.3,8.91-10.52-1-11.51,4.09-1,4.38,3.45,7.77,6.39,12.06.48,12.8-7.83-.43-6.87,5.74.57,3.55,1.26,4.86,4.85.87,6.72,2.1,6.67,1.44,7.22,4.89,1.39,8.3,1.39,8.3c-.43,2.82-5.76,6.38-10.08,8.9s-35.41,17.5-50.52,25.51S175.27,429.59,161.46,427.81ZM345.2,466.18S345,551.64,327,576.45s-53.52,4-64,0-41.6-27.57-52.3-36.09-17.76-27.82-14.84-45.86,19.46-23.31,34.79-32.83,34.06-16.54,42.08-23.31,14.6-5.51,17.28-6.37c0,0,.94-1.12,3.33,1.68s9,7.59,9.64,10.78,2,8.91.82,10.61-4.65,4.36-.45,7.6,6.93,1.14,9,.67,7.25.47,6.64,4.57-2,4,3.61,6.61,6.56,1.83,9.05-1.86,2.85-7.62,12.52-6.67S345.2,466.18,345.2,466.18Zm20.09-37.46c-2,20.76-37.54-2.62-37.54-2.62s-28.32-20-14.61-29.13,35.32-17.18,35.32-17.18l18.6,11.2Q367.09,409.89,365.29,428.72Zm5.41-107.8L351,332.1s-21.26-12.18-33.44-20.6,21-28.08,21-28.08,31.27-16.92,34.11-2.59S370.7,320.92,370.7,320.92Zm36.59-136.16c1.12-5.4.75-23.13,13.1-35.09s28.07-8.86,39.48-5.59,34.62,12.34,50.53,25.26,27.13,28,36.3,42-.37,22.75-6.92,30.65-52.21,29.9-60.26,34-21.7,7.72-21.7,7.72-.55-.44-2.44-2.4-2-6.16-.2-10.52a9.73,9.73,0,0,0,.39-7.47s-5.19-10.49-10.15-5.57-8.84,4.21-12,3-.81-6.94-.4-9.11,1.56-3.92-2.74-6.51-6.53-.45-10.41,4.42-6,2.23-10.61,1.89a13.76,13.76,0,0,1-7.62-3s4.52-58.28,5.65-63.68ZM456.75,359s-3.32,39.47-15.94,31.71-33.11-21.33-33.11-21.33l1.93-22.71s17.44-12.54,32.84-18S456.75,359,456.75,359Zm-71.09-76c4-14.6,34.77,4.68,34.77,4.68S449.67,307.8,437,315s-34.88,18.25-34.88,18.25l-18.05-12s-2.37-23.59,1.61-38.19ZM377.14,429.8c1-18.48,2.21-38.9,2.21-38.9l21.15-9s25.14,12.32,33.11,21.9-20.49,26-20.49,26-37,18.54-36,.06ZM521.26,546.68c-26.89,32.9-85.71,43.65-85.71,43.65s-27.51,7.57-42.48-9.18S389,480.81,390.85,476.51s8.31-7.41,8.31-7.41,3.89.68,4.9,2.8,0,3.14,2,6.19,6.45,3.45,8.15,2.23,4.4-4.83,4.52-5.56.07-5.26,3.55-5.53,8.29,4.34,12.29,1,4-4.31,3.5-7.37-4.14-7.72-1.82-11,10.86-10.11,10.86-10.11c4.91-2.36,12.54,1.18,14.9,2.79,12.7,8.61,29.31,19.84,44.47,29.72,18.34,11.95,25.45,22.94,25.45,22.94S548.15,513.77,521.26,546.68ZM604.38,409c-5.32,29.81-24,37.81-41.45,36s-75.43-40.63-78.6-42.56-3.89-3.55-5.18-5.93l-.2-1.66,3.65-11.9s6.2-6.37,11.52-4.44,4.57-3.53,4.57-3.53.94-7.53-4.58-7.33-6.3-2.23-6.38-5.92,5-5.44,8.5-5.78,2.42-.68,3-6.26-.54-6.6-7.88-7.53-8.42-5.16-9.49-9.4.64-4.16.64-4.16,71.78-35.72,87.48-36.32,30.51,5,37.14,38.11S609.71,379.17,604.38,409Z"/><path id="Path_10" data-name="Path 10" class="cls-2" d="M479,394.76s-1.73,7.14.46,9.65,8.52,6.52,9.5,8.77.47.87,3.14,3.38S604,488.74,604,488.74s7.78,3.5,10.21,0S644,426.58,645.64,370.45s-18.73-109-22.14-114.28-6.08-8.27-18.25-3.26-107.76,52.88-107.76,52.88a15.49,15.49,0,0,0-4.14,5c-2,3.51-2.3,3.77-3.81,4.38s-5.77,1.76-7.21,3.92-.81,2.28-.61,10.28,0,8.33,6,11.58,10.79-1.09,11.59,6.07c-.22,2.22-.05,4.15-.23,6.44-.5,1.86-2,2.68-5.73,2.87-6,.29-6.65,7.7-4.92,10.07s9.64-.47,10.16,4-.18,7.6-1.11,8.34-4.08-1.49-10,.74-4.79,4-6.07,7.12A64.75,64.75,0,0,0,479,394.76Z"/><path id="Path_9" data-name="Path 9" class="cls-2" d="M379.75,490.74l-6.57,141.35s1,6.52,9.73,6,73-7.77,133.8-45.11S590,517.56,590,517.56s2.43-2.51-5.11-7.77-109-71.93-109-71.93-1.45,1.42-5.82-.84-5.13-3.92-5.13-3.92-4.13-2.5-8,0-18.49,16-18.49,16-2.19.75-2.44,4.51,2.44,10.77,2.44,10.77a8.24,8.24,0,0,1-5.45,6.31,9,9,0,0,1-8.27-1.76s-3.16-.25-4.87,1.76-1.06,4.54-1.06,5.41-3.4,4.92-8.09,4.39-3.4-1.4-5.7-6.76-4-4.68-8.69-4.8-10.65-.81-12.1,3.49,1,7.54.6,11.14.25,3.95-2.3,5.44A25.45,25.45,0,0,0,379.75,490.74Z"/><path id="Path_1" data-name="Path 1" class="cls-3" d="M348.44,379.35,367.1,390.8h13l20.26-9.27L408,369.15l1.61-22.2-7.17-13.66-17.6-12.52H370.28l-18.74,10.47L342,343v23.26Z"/><g id="Path_14" data-name="Path 14"><path class="cls-2" d="M372.38,664.82a347.18,347.18,0,0,1-35.9-1.83A312.35,312.35,0,0,1,303,657.7a287,287,0,0,1-31-8.48,270.89,270.89,0,0,1-28.65-11.43,260.77,260.77,0,0,1-50.12-30.7,268.77,268.77,0,0,1-40.74-39.41A292.22,292.22,0,0,1,121,521.58a317.3,317.3,0,0,1-22.4-50.73A338.6,338.6,0,0,1,80.45,363.73a251.59,251.59,0,0,1,5.74-54.09,283.49,283.49,0,0,1,17-52.68,311.25,311.25,0,0,1,27.06-49.49A326,326,0,0,1,166.18,163a322,322,0,0,1,43.68-37.78A303.86,303.86,0,0,1,260,96a283.17,283.17,0,0,1,55.43-18.82A270.24,270.24,0,0,1,375,70.5a328,328,0,0,1,59.18,5.35,310.94,310.94,0,0,1,54.7,15.34,302.49,302.49,0,0,1,49.39,24.29,294.15,294.15,0,0,1,79.43,71.19A287.84,287.84,0,0,1,646,231.59a284,284,0,0,1,29.7,103,349.45,349.45,0,0,1-3.42,62.68,356.63,356.63,0,0,1-15,62.66,334.69,334.69,0,0,1-26.67,59.49A302.48,302.48,0,0,1,592,572.63a274.16,274.16,0,0,1-88.31,64.93,281,281,0,0,1-27.14,10.84,293.31,293.31,0,0,1-29.21,8.27c-10.15,2.32-20.67,4.17-31.28,5.5-10.85,1.35-22.07,2.2-33.37,2.51C379.31,664.77,375.81,664.82,372.38,664.82Z"/><path class="cls-2" d="M375,71.52a270.13,270.13,0,0,0-59.3,6.65,281.9,281.9,0,0,0-55.24,18.76,302.1,302.1,0,0,0-50,29.1,318.88,318.88,0,0,0-43.56,37.66,324.11,324.11,0,0,0-35.82,44.36,310.09,310.09,0,0,0-27,49.32,283.15,283.15,0,0,0-16.93,52.49,249.53,249.53,0,0,0-5.71,53.86A337.44,337.44,0,0,0,99.51,470.51a316.29,316.29,0,0,0,22.35,50.57A289.77,289.77,0,0,0,153.26,567a267.38,267.38,0,0,0,40.6,39.27,259.58,259.58,0,0,0,49.93,30.58,267.73,267.73,0,0,0,28.52,11.4,284.89,284.89,0,0,0,30.92,8.46A313.05,313.05,0,0,0,336.58,662a347.89,347.89,0,0,0,35.8,1.81c3.42,0,6.91,0,10.38-.14,11.27-.31,22.47-1.16,33.28-2.51a314,314,0,0,0,31.19-5.48,291.3,291.3,0,0,0,29.11-8.24,279.17,279.17,0,0,0,27.05-10.81,273.13,273.13,0,0,0,88-64.69,302,302,0,0,0,38.45-53,334.43,334.43,0,0,0,26.59-59.31,355.33,355.33,0,0,0,14.9-62.48,348,348,0,0,0,3.41-62.46,283.62,283.62,0,0,0-57.82-147.29,290.89,290.89,0,0,0-36.08-38.92,295.31,295.31,0,0,0-43.08-32.09,301.73,301.73,0,0,0-49.23-24.21A311,311,0,0,0,434,76.85a327,327,0,0,0-59-5.33m0-2c163.49,0,288.34,118.11,301.73,265,5.51,149.35-88.25,325.47-293.9,331.17-3.5.09-7,.14-10.43.14-198.51,0-292.14-159.28-292.91-302.1C78.68,218.44,211.47,69.49,375,69.49Z"/></g><path id="Path_11" data-name="Path 11" class="cls-2" d="M453.45,277.59a13.47,13.47,0,0,0,5.06,6.71c3.87,2.62,3.1,3,6.09,3.42s5.09-2.17,10.52-2.05a19.14,19.14,0,0,0,8.4-1.37c25.79-10.74,111.25-54.1,114.38-56.68,3.6-3,7.2-5.64-1-17.5s-44.43-54.71-83.6-77-109.94-48-112.18-27.58-8.8,121-8.42,122.09,3.73,5.17,4.23,7.27.17,9.48,1.45,11.23,15.84,9,20.1,4.92,5.62-9,10.39-6.67,5.11,3.07,3.74,9.48.09,7.63,5.11,7.8,9.29-9,14.49-2.8,4.43,5.79,2.81,12.54S453.45,277.59,453.45,277.59Z"/><path id="Path_12" data-name="Path 12" class="cls-2" d="M371,224.66c0-2,3.75-113.74,3.75-113.74s5.42-17.73-12.17-15-52.33,1.12-98.18,26S153,199.8,171.32,210.59s103.86,66.7,105.91,66.32,7.49-1.74,10.11,0,10.36,4.72,15.67-1.08,2.69-9.86,1.7-15.74,8.52-10.19,10.55-9.72,6,6.15,8.59,6.35,7.92-.68,7.92-3.31-3.67-8.57-2.22-10.66,7.27-4.46,8.71-4,3.47,8.71,8.45,8.91,18.09-.81,18.15-3.84-1.31-10,1.25-12.22S371,226.62,371,224.66Z"/><path id="Path_13" data-name="Path 13" class="cls-2" d="M270,324.91c1-3.06,3.36-8.67,3.36-11.76s-4.86-7.13-8-8.29.73-2.85-1.69-5.28-78.2-49.68-105.44-66.72-47.35,87.91-49.88,102.25c-2.16,12.27.73,123.8,21.66,132.07,3.94,2.58,9.84-2.42,15.58-5.2,39.9-19.3,119.19-63.47,121.13-67.48s2.68-17.79-1.7-21.8-13.14-1.5-13.38-7-1.19-8,2.39-7.86,8.68-.17,8.26-4.91-.34-6.23-5.37-8.6-3.41-4.92-2.9-7.2,1.45-4.56,8.27-3.77S268.91,328,270,324.91Z"/><path id="Path_8" data-name="Path 8" class="cls-2" d="M281.5,424c2.93.1,20.63,19.2,20.63,19.2s3.74,10.09.57,12.61-1.72,4.6-1.72,4.6,3.45,5.19,7.34,4.15,4.32-2.08,5.61-1.34,4.9,1.49,4.75,3.71-1.29,4,0,5,8.64,7,11.23,3.27.44-4.6,4.18-7.12,6-2.67,8.2-2.38,12.53,1.34,12.53,6.23v12.9a11.89,11.89,0,0,0,.86,3.86c.72,1.34-6.25,133.56-10.15,144.58s-110.82-26.73-132.39-51.47c-28.62-18.07-68.06-77.54-68.06-77.54s-3-8.31,2.16-12.9S262.56,429.52,265,428.6s5.09.57,8.19-1.14S278.57,424,281.5,424Z"/></g></g></g></g></g></svg>