<svg xmlns="http://www.w3.org/2000/svg" viewBox="0 0 66.44 42.48"><defs><style>.cls-1,.cls-2{fill:#fff;}.cls-1{stroke:#000;stroke-miterlimit:10;}</style></defs><title>Ресурс 5</title><g id="Слой_2" data-name="Слой 2"><g id="Слой_1-2" data-name="Слой 1"><polygon class="cls-1" points="16.71 11.69 13.71 8.69 7.71 14.69 26.71 33.69 32.71 26.69 37.71 33.69 60.71 7.69 65.71 11.69 37.71 41.69 32.71 34.69 25.71 41.69 19.71 35.69 11.71 41.69 2.71 32.69 7.71 28.69 13.71 34.69 17.71 31.69 0.71 13.69 14.71 0.69 21.71 7.69 16.71 11.69"/><path class="cls-2" d="M24.33,7.26,42,25.68"/><path d="M24.4,7.19a31,31,0,0,1,5.38,3.69c.86.65,1.61,1.4,2.42,2.1s1.52,1.49,2.28,2.24,1.45,1.56,2.15,2.37,1.38,1.62,2,2.5a32.59,32.59,0,0,1,3.47,5.52l-.14.14L33,16.61,24.25,7.33Z"/><path class="cls-1" d="M39,21.51c2.48-1.7,2.74-3.16,2.76-3.82.07-2.71-3.83-4.78-8-7a47.27,47.27,0,0,0-8.5-3.5"/><polyline class="cls-1" points="27.11 10.44 27.22 10.92 24.07 10.64 24.99 14.53 27.68 12.87 28.14 14.81 29.57 16.53 26.89 18.2 29.52 20.65 31.01 18.25 32.44 19.96 34.62 20.48 34.1 22.65 37.25 22.93 36.79 20.99 36.56 20.02"/></g></g></svg>